<svg width="215" height="26" viewBox="0 0 215 26" fill="none" xmlns="http://www.w3.org/2000/svg">
<path d="M12.408 25.608C10.296 25.608 8.48267 25.2347 6.968 24.488C5.45333 23.7413 4.216 22.7707 3.256 21.576C2.31733 20.3813 1.624 19.08 1.176 17.672C0.728 16.264 0.504 14.9093 0.504 13.608V12.904C0.504 11.4533 0.728 10.024 1.176 8.616C1.64533 7.208 2.36 5.928 3.32 4.776C4.28 3.624 5.496 2.70667 6.968 2.024C8.46133 1.32 10.2213 0.967999 12.248 0.967999C14.36 0.967999 16.1947 1.352 17.752 2.12C19.3307 2.86667 20.5893 3.93333 21.528 5.32C22.4667 6.68533 23.032 8.28533 23.224 10.12H18.648C18.4773 9.05333 18.0933 8.15733 17.496 7.432C16.92 6.68533 16.184 6.13067 15.288 5.768C14.392 5.384 13.3787 5.192 12.248 5.192C11.096 5.192 10.072 5.39467 9.176 5.8C8.28 6.184 7.53333 6.73867 6.936 7.464C6.33867 8.18933 5.88 9.04267 5.56 10.024C5.26133 11.0053 5.112 12.0933 5.112 13.288C5.112 14.44 5.26133 15.5067 5.56 16.488C5.88 17.4693 6.34933 18.3333 6.968 19.08C7.58667 19.8053 8.344 20.3707 9.24 20.776C10.1573 21.1813 11.2133 21.384 12.408 21.384C14.1573 21.384 15.6293 20.9573 16.824 20.104C18.04 19.2293 18.776 18.0133 19.032 16.456H23.608C23.3947 18.12 22.8293 19.6453 21.912 21.032C20.9947 22.4187 19.736 23.528 18.136 24.36C16.536 25.192 14.6267 25.608 12.408 25.608ZM35.4425 25.608C33.9065 25.608 32.5518 25.3627 31.3785 24.872C30.2052 24.3813 29.2132 23.72 28.4025 22.888C27.5918 22.0347 26.9732 21.0747 26.5465 20.008C26.1412 18.9413 25.9385 17.832 25.9385 16.68V16.008C25.9385 14.8133 26.1518 13.6827 26.5785 12.616C27.0265 11.528 27.6558 10.568 28.4665 9.736C29.2985 8.88267 30.3012 8.22133 31.4745 7.752C32.6478 7.26133 33.9705 7.016 35.4425 7.016C36.9145 7.016 38.2372 7.26133 39.4105 7.752C40.5838 8.22133 41.5758 8.88267 42.3865 9.736C43.2185 10.568 43.8478 11.528 44.2745 12.616C44.7012 13.6827 44.9145 14.8133 44.9145 16.008V16.68C44.9145 17.832 44.7012 18.9413 44.2745 20.008C43.8692 21.0747 43.2612 22.0347 42.4505 22.888C41.6398 23.72 40.6478 24.3813 39.4745 24.872C38.3012 25.3627 36.9572 25.608 35.4425 25.608ZM35.4425 21.8C36.5305 21.8 37.4478 21.5653 38.1945 21.096C38.9412 20.6053 39.5065 19.9547 39.8905 19.144C40.2745 18.312 40.4665 17.3733 40.4665 16.328C40.4665 15.2613 40.2638 14.3227 39.8585 13.512C39.4745 12.68 38.8985 12.0293 38.1305 11.56C37.3838 11.0693 36.4878 10.824 35.4425 10.824C34.3972 10.824 33.4905 11.0693 32.7225 11.56C31.9758 12.0293 31.3998 12.68 30.9945 13.512C30.5892 14.3227 30.3865 15.2613 30.3865 16.328C30.3865 17.3733 30.5785 18.312 30.9625 19.144C31.3678 19.9547 31.9438 20.6053 32.6905 21.096C33.4372 21.5653 34.3545 21.8 35.4425 21.8ZM49.1933 25V7.016C49.1933 5.032 49.7373 3.57067 50.8253 2.632C51.9346 1.672 53.5666 1.192 55.7213 1.192H57.3533V4.616H55.4013C54.7399 4.616 54.2279 4.79733 53.8653 5.16C53.5239 5.50133 53.3533 5.992 53.3533 6.632V25H49.1933ZM60.5213 25V7.208C60.5213 5.224 61.0653 3.76267 62.1533 2.824C63.2626 1.864 64.8946 1.384 67.0493 1.384H69.1613V4.808H66.7293C66.0679 4.808 65.5559 4.98933 65.1933 5.352C64.8519 5.69333 64.6813 6.184 64.6813 6.824V25H60.5213ZM47.0493 11.176V7.912H69.4493V11.176H47.0493ZM79.929 25.608C78.4357 25.608 77.1237 25.352 75.993 24.84C74.8837 24.328 73.9557 23.6453 73.209 22.792C72.4837 21.9173 71.929 20.9467 71.545 19.88C71.1823 18.8133 71.001 17.7253 71.001 16.616V16.008C71.001 14.856 71.1823 13.7467 71.545 12.68C71.929 11.592 72.4837 10.632 73.209 9.8C73.9557 8.94667 74.873 8.27467 75.961 7.784C77.049 7.272 78.3077 7.016 79.737 7.016C81.6143 7.016 83.1823 7.432 84.441 8.264C85.721 9.07467 86.681 10.152 87.321 11.496C87.961 12.8187 88.281 14.248 88.281 15.784V17.384H72.889V14.664H85.497L84.121 16.008C84.121 14.8987 83.961 13.9493 83.641 13.16C83.321 12.3707 82.8303 11.7627 82.169 11.336C81.529 10.9093 80.7183 10.696 79.737 10.696C78.7557 10.696 77.9237 10.92 77.241 11.368C76.5583 11.816 76.0357 12.4667 75.673 13.32C75.3317 14.152 75.161 15.1547 75.161 16.328C75.161 17.416 75.3317 18.3867 75.673 19.24C76.0143 20.072 76.537 20.7333 77.241 21.224C77.945 21.6933 78.841 21.928 79.929 21.928C81.017 21.928 81.9023 21.7147 82.585 21.288C83.2677 20.84 83.705 20.296 83.897 19.656H87.993C87.737 20.8507 87.2463 21.896 86.521 22.792C85.7957 23.688 84.8677 24.3813 83.737 24.872C82.6277 25.3627 81.3583 25.608 79.929 25.608ZM99.7728 25.608C98.2794 25.608 96.9674 25.352 95.8368 24.84C94.7274 24.328 93.7994 23.6453 93.0528 22.792C92.3274 21.9173 91.7728 20.9467 91.3888 19.88C91.0261 18.8133 90.8448 17.7253 90.8448 16.616V16.008C90.8448 14.856 91.0261 13.7467 91.3888 12.68C91.7728 11.592 92.3274 10.632 93.0528 9.8C93.7994 8.94667 94.7168 8.27467 95.8048 7.784C96.8928 7.272 98.1514 7.016 99.5808 7.016C101.458 7.016 103.026 7.432 104.285 8.264C105.565 9.07467 106.525 10.152 107.165 11.496C107.805 12.8187 108.125 14.248 108.125 15.784V17.384H92.7328V14.664H105.341L103.965 16.008C103.965 14.8987 103.805 13.9493 103.485 13.16C103.165 12.3707 102.674 11.7627 102.013 11.336C101.373 10.9093 100.562 10.696 99.5808 10.696C98.5994 10.696 97.7674 10.92 97.0848 11.368C96.4021 11.816 95.8794 12.4667 95.5168 13.32C95.1754 14.152 95.0048 15.1547 95.0048 16.328C95.0048 17.416 95.1754 18.3867 95.5168 19.24C95.8581 20.072 96.3808 20.7333 97.0848 21.224C97.7888 21.6933 98.6848 21.928 99.7728 21.928C100.861 21.928 101.746 21.7147 102.429 21.288C103.111 20.84 103.549 20.296 103.741 19.656H107.837C107.581 20.8507 107.09 21.896 106.365 22.792C105.639 23.688 104.711 24.3813 103.581 24.872C102.471 25.3627 101.202 25.608 99.7728 25.608ZM123.707 25V5H128.251V25H123.707ZM116.955 5.64V1.64H135.003V5.64H116.955ZM143.898 25.608C142.404 25.608 141.092 25.352 139.962 24.84C138.852 24.328 137.924 23.6453 137.178 22.792C136.452 21.9173 135.898 20.9467 135.514 19.88C135.151 18.8133 134.97 17.7253 134.97 16.616V16.008C134.97 14.856 135.151 13.7467 135.514 12.68C135.898 11.592 136.452 10.632 137.178 9.8C137.924 8.94667 138.842 8.27467 139.93 7.784C141.018 7.272 142.276 7.016 143.706 7.016C145.583 7.016 147.151 7.432 148.41 8.264C149.69 9.07467 150.65 10.152 151.29 11.496C151.93 12.8187 152.25 14.248 152.25 15.784V17.384H136.858V14.664H149.466L148.09 16.008C148.09 14.8987 147.93 13.9493 147.61 13.16C147.29 12.3707 146.799 11.7627 146.138 11.336C145.498 10.9093 144.687 10.696 143.706 10.696C142.724 10.696 141.892 10.92 141.21 11.368C140.527 11.816 140.004 12.4667 139.642 13.32C139.3 14.152 139.13 15.1547 139.13 16.328C139.13 17.416 139.3 18.3867 139.642 19.24C139.983 20.072 140.506 20.7333 141.21 21.224C141.914 21.6933 142.81 21.928 143.898 21.928C144.986 21.928 145.871 21.7147 146.554 21.288C147.236 20.84 147.674 20.296 147.866 19.656H151.962C151.706 20.8507 151.215 21.896 150.49 22.792C149.764 23.688 148.836 24.3813 147.706 24.872C146.596 25.3627 145.327 25.608 143.898 25.608ZM163.742 25.608C162.248 25.608 160.936 25.352 159.806 24.84C158.696 24.328 157.768 23.6453 157.022 22.792C156.296 21.9173 155.742 20.9467 155.358 19.88C154.995 18.8133 154.814 17.7253 154.814 16.616V16.008C154.814 14.856 154.995 13.7467 155.358 12.68C155.742 11.592 156.296 10.632 157.022 9.8C157.768 8.94667 158.686 8.27467 159.774 7.784C160.862 7.272 162.12 7.016 163.55 7.016C165.427 7.016 166.995 7.432 168.254 8.264C169.534 9.07467 170.494 10.152 171.134 11.496C171.774 12.8187 172.094 14.248 172.094 15.784V17.384H156.702V14.664H169.31L167.934 16.008C167.934 14.8987 167.774 13.9493 167.454 13.16C167.134 12.3707 166.643 11.7627 165.982 11.336C165.342 10.9093 164.531 10.696 163.55 10.696C162.568 10.696 161.736 10.92 161.054 11.368C160.371 11.816 159.848 12.4667 159.486 13.32C159.144 14.152 158.974 15.1547 158.974 16.328C158.974 17.416 159.144 18.3867 159.486 19.24C159.827 20.072 160.35 20.7333 161.054 21.224C161.758 21.6933 162.654 21.928 163.742 21.928C164.83 21.928 165.715 21.7147 166.398 21.288C167.08 20.84 167.518 20.296 167.71 19.656H171.806C171.55 20.8507 171.059 21.896 170.333 22.792C169.608 23.688 168.68 24.3813 167.55 24.872C166.44 25.3627 165.171 25.608 163.742 25.608ZM183.361 25.224C181.761 25.224 180.439 25.0213 179.393 24.616C178.369 24.1893 177.601 23.4853 177.089 22.504C176.577 21.5013 176.321 20.1573 176.321 18.472L176.353 2.728H180.513L180.481 18.76C180.481 19.6133 180.705 20.2747 181.153 20.744C181.623 21.192 182.284 21.416 183.137 21.416H185.857V25.224H183.361ZM173.569 10.888V7.624H185.857V10.888H173.569ZM189.591 25V1.64H194.039V15.272H193.271C193.271 13.5227 193.495 12.04 193.943 10.824C194.391 9.608 195.052 8.68 195.927 8.04C196.823 7.4 197.953 7.08 199.319 7.08H199.511C201.495 7.08 202.999 7.76267 204.023 9.128C205.047 10.4933 205.559 12.4773 205.559 15.08V25H201.111V14.664C201.111 13.5547 200.791 12.68 200.151 12.04C199.532 11.4 198.711 11.08 197.687 11.08C196.599 11.08 195.713 11.4427 195.031 12.168C194.369 12.872 194.039 13.8 194.039 14.952V25H189.591ZM209.637 25V19.88H214.629V25H209.637Z" fill="black"/>
</svg>
