<svg width="34" height="34" viewBox="0 0 34 34" fill="none" xmlns="http://www.w3.org/2000/svg">
<g clip-path="url(#clip0_602_5)">
<path d="M16.8515 8.66323C16.8523 8.92741 16.9576 9.18055 17.1444 9.36736C17.3312 9.55416 17.5844 9.65946 17.8486 9.66025L22.9539 9.63196L8.51474 24.0711C8.32721 24.2586 8.22185 24.513 8.22185 24.7782C8.22185 25.0434 8.32721 25.2978 8.51474 25.4853C8.70228 25.6728 8.95663 25.7782 9.22185 25.7782C9.48707 25.7782 9.74142 25.6728 9.92896 25.4853L24.361 11.0532L24.361 16.1727C24.3605 16.3047 24.3861 16.4355 24.4363 16.5576C24.4866 16.6797 24.5606 16.7906 24.6539 16.8839C24.7473 16.9773 24.8582 17.0512 24.9802 17.1015C25.1023 17.1517 25.2331 17.1773 25.3651 17.1768C25.6293 17.176 25.8824 17.0707 26.0692 16.8839C26.2561 16.6971 26.3613 16.444 26.3621 16.1798L26.3692 10.6431C26.3687 9.84812 26.0527 9.08582 25.4905 8.52367C24.9284 7.96151 24.1661 7.64548 23.3711 7.64499L17.8486 7.6662C17.5844 7.66699 17.3312 7.77229 17.1444 7.95909C16.9576 8.1459 16.8523 8.39904 16.8515 8.66323Z" fill="#fff"/>
</g>
<defs>
<clipPath id="clip0_602_5">
<rect width="24" height="24" fill="white" transform="translate(17 0.029438) rotate(45)"/>
</clipPath>
</defs>
</svg>
