<svg width="49" height="49" viewBox="0 0 49 49" fill="none" xmlns="http://www.w3.org/2000/svg">
<g clip-path="url(#clip0_71_29)">
<path d="M48.61 24.1059C48.61 10.7982 37.7214 0 24.305 0C10.8886 0 0 10.7982 0 24.1059C0 31.4354 3.35409 38.0409 8.60397 42.4748C8.65258 42.5231 8.70119 42.5231 8.70119 42.5714C9.13868 42.9092 9.57617 43.247 10.0623 43.5848C10.3053 43.7296 10.4998 43.9196 10.7428 44.1127C14.7594 46.8163 19.5008 48.2611 24.3536 48.26C29.2064 48.2611 33.9478 46.8163 37.9644 44.1127C38.2075 43.9679 38.4019 43.7779 38.645 43.6301C39.0824 43.2953 39.5685 42.9574 40.006 42.6196C40.0546 42.5714 40.1032 42.5713 40.1032 42.5231C45.2559 38.0379 48.61 31.4354 48.61 24.1059V24.1059ZM24.305 45.2226C19.7357 45.2226 15.5552 43.7748 12.1039 41.3649C12.1525 40.9788 12.2497 40.5957 12.3469 40.2096C12.6366 39.1633 13.0614 38.1586 13.6108 37.2205C14.1455 36.3036 14.7774 35.4832 15.5552 34.7593C16.2843 34.0354 17.1593 33.3627 18.0343 32.8319C18.9579 32.301 19.9301 31.9149 20.9995 31.6254C22.0773 31.337 23.1888 31.1919 24.305 31.1941C27.6185 31.1708 30.8103 32.4327 33.2006 34.711C34.3187 35.821 35.1936 37.124 35.8256 38.617C36.1658 39.4857 36.4089 40.4027 36.5547 41.3649C32.9672 43.8688 28.6903 45.2157 24.305 45.2226ZM16.8677 22.9024C16.4394 21.9288 16.224 20.8761 16.2357 19.8137C16.2357 18.755 16.4302 17.6933 16.8677 16.7281C17.3052 15.7629 17.8885 14.8973 18.6176 14.1734C19.3468 13.4495 20.2218 12.8734 21.194 12.439C22.1662 12.0047 23.2356 11.8116 24.305 11.8116C25.423 11.8116 26.4438 12.0047 27.416 12.439C28.3882 12.8734 29.2632 13.4525 29.9924 14.1734C30.7215 14.8973 31.3048 15.7659 31.7423 16.7281C32.1798 17.6933 32.3743 18.755 32.3743 19.8137C32.3743 20.9237 32.1798 21.9372 31.7423 22.8994C31.3201 23.8503 30.7271 24.717 29.9924 25.4571C29.2466 26.1855 28.3736 26.7732 27.416 27.1915C25.4073 28.011 23.1541 28.011 21.1454 27.1915C20.1878 26.7732 19.3148 26.1855 18.569 25.4571C17.8332 24.7278 17.2544 23.8576 16.8677 22.8994V22.9024ZM39.4227 38.9066C39.4227 38.8101 39.3741 38.7618 39.3741 38.6653C38.896 37.1554 38.1914 35.7257 37.2839 34.4245C36.3755 33.1135 35.2592 31.9574 33.9784 31.001C33.0002 30.2704 31.9399 29.655 30.8187 29.1671C31.3288 28.8331 31.8014 28.4458 32.2284 28.0119C32.9531 27.3016 33.5896 26.5077 34.1242 25.6472C35.2008 23.8911 35.7568 21.8693 35.7284 19.8137C35.7434 18.2921 35.4457 16.7834 34.8534 15.3799C34.2686 14.0275 33.4269 12.7996 32.3743 11.7634C31.3232 10.7379 30.0862 9.91921 28.7285 9.35037C27.3125 8.76339 25.7908 8.46885 24.2564 8.48471C22.7217 8.46981 21.2001 8.76538 19.7843 9.35339C18.4148 9.92101 17.1749 10.7571 16.1385 11.8116C15.1057 12.854 14.281 14.0811 13.708 15.4281C13.1157 16.8316 12.818 18.3404 12.833 19.862C12.833 20.9237 12.9789 21.9372 13.2705 22.8994C13.5622 23.9128 13.9511 24.8298 14.4858 25.6954C14.9719 26.5641 15.6524 27.3363 16.3816 28.0602C16.8191 28.4945 17.3052 28.8776 17.8399 29.2154C16.7153 29.7163 15.6546 30.3481 14.6802 31.0975C13.4164 32.0627 12.2983 33.218 11.3747 34.4727C10.458 35.7686 9.75262 37.1998 9.28451 38.7136C9.2359 38.8101 9.2359 38.9066 9.2359 38.9549C5.39571 35.0971 3.01382 29.891 3.01382 24.1059C3.01382 12.4873 12.59 2.9891 24.305 2.9891C36.02 2.9891 45.5962 12.4873 45.5962 24.1059C45.5898 29.6556 43.3702 34.9771 39.4227 38.9066V38.9066Z" fill="black"/>
</g>
<defs>
<clipPath id="clip0_71_29">
<rect width="48.61" height="48.26" fill="white"/>
</clipPath>
</defs>
</svg>
