<svg width="49" height="49" viewBox="0 0 49 49" fill="none" xmlns="http://www.w3.org/2000/svg">
<path d="M44.1987 14.9425C44.0124 14.6752 43.7636 14.4567 43.4736 14.3058C43.1837 14.1549 42.8612 14.076 42.5338 14.0758H14.8524L12.5151 8.50584C12.2086 7.77233 11.6896 7.14568 11.024 6.70536C10.3584 6.26503 9.57601 6.03085 8.77614 6.03251H4.05084V10.0542H8.77614L18.3847 32.9475C18.5386 33.3138 18.7983 33.6267 19.1309 33.8467C19.4636 34.0668 19.8544 34.1842 20.2542 34.1842H36.4575C37.3021 34.1842 38.0576 33.6634 38.3553 32.8812L44.4316 16.7945C44.5464 16.4901 44.5852 16.1626 44.5446 15.84C44.5041 15.5175 44.3854 15.2095 44.1987 14.9425V14.9425Z" fill="black"/>
<path d="M21.2669 42.2275C22.9448 42.2275 24.305 40.8771 24.305 39.2113C24.305 37.5454 22.9448 36.195 21.2669 36.195C19.589 36.195 18.2288 37.5454 18.2288 39.2113C18.2288 40.8771 19.589 42.2275 21.2669 42.2275Z" fill="black"/>
<path d="M35.4448 42.2275C37.1227 42.2275 38.4829 40.8771 38.4829 39.2113C38.4829 37.5454 37.1227 36.195 35.4448 36.195C33.7669 36.195 32.4067 37.5454 32.4067 39.2113C32.4067 40.8771 33.7669 42.2275 35.4448 42.2275Z" fill="black"/>
</svg>
