<svg width="49" height="49" viewBox="0 0 49 49" fill="none" xmlns="http://www.w3.org/2000/svg">
<path d="M42.9135 7.54062H5.69648C5.48761 7.54062 5.31671 7.71028 5.31671 7.91765V10.9339C5.31671 11.1413 5.48761 11.3109 5.69648 11.3109H42.9135C43.1224 11.3109 43.2933 11.1413 43.2933 10.9339V7.91765C43.2933 7.71028 43.1224 7.54062 42.9135 7.54062ZM42.9135 36.9491H5.69648C5.48761 36.9491 5.31671 37.1187 5.31671 37.3261V40.3423C5.31671 40.5497 5.48761 40.7194 5.69648 40.7194H42.9135C43.1224 40.7194 43.2933 40.5497 43.2933 40.3423V37.3261C43.2933 37.1187 43.1224 36.9491 42.9135 36.9491ZM42.9135 22.2448H5.69648C5.48761 22.2448 5.31671 22.4145 5.31671 22.6219V25.6381C5.31671 25.8455 5.48761 26.0151 5.69648 26.0151H42.9135C43.1224 26.0151 43.2933 25.8455 43.2933 25.6381V22.6219C43.2933 22.4145 43.1224 22.2448 42.9135 22.2448Z" fill="black"/>
</svg>
