<svg width="49" height="49" viewBox="0 0 49 49" fill="none" xmlns="http://www.w3.org/2000/svg">
<path d="M37.8287 39.4264L26.2535 27.9325C23.7699 29.6855 20.7136 30.4481 17.6903 30.0693C14.667 29.6905 11.8974 28.1979 9.93037 25.8873C7.96334 23.5767 6.94246 20.6168 7.07005 17.5941C7.19765 14.5714 8.46441 11.7067 10.6193 9.56755C12.7736 7.42752 15.6591 6.16918 18.7039 6.04196C21.7487 5.91474 24.7306 6.92792 27.0583 8.88068C29.3861 10.8334 30.8899 13.5832 31.2717 16.5849C31.6534 19.5867 30.8853 22.6213 29.1194 25.0872L40.6947 36.5811L37.8307 39.4244L37.8287 39.4264V39.4264ZM19.2111 10.0542C17.3478 10.0537 15.5414 10.6909 14.0961 11.8584C12.6508 13.0259 11.655 14.6523 11.2765 16.4636C10.898 18.2748 11.1599 20.1603 12.0181 21.8022C12.8763 23.4442 14.2783 24.7422 15.988 25.4777C17.6977 26.2132 19.6104 26.3412 21.404 25.8401C23.1976 25.3389 24.7624 24.2393 25.8347 22.7265C26.907 21.2138 27.4214 19.3802 27.291 17.5349C27.1607 15.6896 26.3937 13.9453 25.1192 12.5959L26.3446 13.8024L24.9633 12.435L24.939 12.4109C24.1887 11.6614 23.2961 11.0672 22.3129 10.6627C21.3297 10.2581 20.2754 10.0513 19.2111 10.0542V10.0542Z" fill="black"/>
</svg>
