<svg width="49" height="49" viewBox="0 0 49 49" fill="none" xmlns="http://www.w3.org/2000/svg">
<path fill-rule="evenodd" clip-rule="evenodd" d="M14.1779 14.0758C11.492 14.0758 8.91613 15.1351 7.01694 17.0206C5.11774 18.9062 4.05078 21.4635 4.05078 24.13C4.05078 26.7965 5.11774 29.3538 7.01694 31.2394C8.91613 33.1249 11.492 34.1842 14.1779 34.1842H34.432C37.1179 34.1842 39.6938 33.1249 41.593 31.2394C43.4922 29.3538 44.5591 26.7965 44.5591 24.13C44.5591 21.4635 43.4922 18.9062 41.593 17.0206C39.6938 15.1351 37.1179 14.0758 34.432 14.0758H14.1779ZM14.1779 19.1029C12.8349 19.1029 11.547 19.6326 10.5974 20.5753C9.6478 21.5181 9.11432 22.7967 9.11432 24.13C9.11432 25.4633 9.6478 26.7419 10.5974 27.6847C11.547 28.6274 12.8349 29.1571 14.1779 29.1571C15.5208 29.1571 16.8087 28.6274 17.7583 27.6847C18.7079 26.7419 19.2414 25.4633 19.2414 24.13C19.2414 22.7967 18.7079 21.5181 17.7583 20.5753C16.8087 19.6326 15.5208 19.1029 14.1779 19.1029Z" fill="black"/>
</svg>
